<svg width="200" height="200" viewBox="0 0 200 200" fill="none" xmlns="http://www.w3.org/2000/svg">
  <path id="letter" d="M80.5064 180.956C80.6218 181.117 80.7631 181.12 80.9208 181.025C82.067 180.343 83.342 179.986 84.8021 180.228C87.7617 180.719 89.7916 183.528 89.2644 186.725C88.7339 189.942 85.91 191.947 82.9503 191.457C81.4902 191.215 80.3975 190.466 79.5312 189.451C79.4126 189.31 79.2777 189.267 79.1168 189.382L78.4043 189.893C78.2434 190.008 78.2371 190.169 78.3557 190.31C79.4394 191.605 80.868 192.652 82.703 192.956C86.6098 193.604 90.169 190.95 90.8232 186.983C91.474 183.037 88.9561 179.376 85.0494 178.729C83.2144 178.425 81.5255 178.956 80.0837 179.832C79.9261 179.927 79.8803 180.082 79.9956 180.243L80.5064 180.956Z" fill="white"/>
  <path id="letter" d="M65.0953 183.267L65.8677 183.543C66.0372 183.603 66.1715 183.524 66.2506 183.361L66.7471 182.2C67.1087 183.454 67.9862 184.51 69.418 185.02C72.0556 185.96 74.695 184.501 75.6511 181.806C76.6073 179.111 75.4788 176.309 72.8413 175.369C71.4095 174.859 70.0828 175.129 69.0003 175.848L69.3262 174.69C69.3675 174.514 69.3134 174.367 69.1439 174.307L68.3714 174.031C68.2019 173.971 68.0487 174.044 67.9885 174.213L64.913 182.884C64.8528 183.054 64.9257 183.207 65.0953 183.267ZM72.2736 176.611C74.1575 177.282 75.0101 179.306 74.288 181.341C73.5726 183.358 71.6436 184.369 69.7596 183.698C67.8757 183.027 67.0687 180.934 67.7507 179.012C68.4393 177.07 70.3896 175.939 72.2736 176.611Z" fill="white"/>
  <path id="letter" d="M55.0429 179.855C53.6605 179.09 52.2662 179.507 51.5067 180.595C51.3927 180.761 51.432 180.897 51.607 180.994L51.9919 181.207C52.1494 181.294 52.2852 181.255 52.407 181.117C52.9137 180.528 53.7186 180.311 54.541 180.766C55.3634 181.221 55.6085 182.02 55.3817 182.763C55.3299 182.94 55.3691 183.076 55.5266 183.163L55.9115 183.376C56.0865 183.473 56.2223 183.434 56.3013 183.249C56.8158 182.025 56.4252 180.621 55.0429 179.855ZM52.1542 176.519L53.3441 177.178C53.4841 177.255 53.6452 177.253 53.7731 177.187L62.4107 172.824L58.5984 179.743C58.5115 179.901 58.5586 180.064 58.7161 180.151L59.5035 180.587C59.661 180.674 59.8239 180.627 59.9108 180.47L64.3504 172.412C64.4372 172.254 64.3901 172.091 64.2327 172.004L62.9553 171.297C62.8153 171.219 62.6542 171.221 62.5263 171.288L54.0534 175.559L57.7885 168.78C57.8753 168.622 57.8283 168.459 57.6708 168.372L56.8834 167.936C56.7259 167.849 56.563 167.896 56.4761 168.053L52.0365 176.111C51.9496 176.269 51.9967 176.432 52.1542 176.519Z" fill="white"/>
  <path id="letter" d="M42.3975 169.34L47.684 173.391C47.8269 173.5 47.995 173.478 48.1041 173.335L48.5165 172.794C48.6257 172.651 48.6032 172.483 48.4603 172.373L46.4124 170.804L51.3974 164.268C51.5066 164.125 51.4841 163.957 51.3412 163.847L50.6268 163.3C50.484 163.19 50.3159 163.213 50.2068 163.356L45.2217 169.892L43.1738 168.322C43.0309 168.213 42.8629 168.235 42.7537 168.379L42.3414 168.919C42.2322 169.062 42.2547 169.231 42.3975 169.34Z" fill="white"/>
  <path id="letter" d="M37.1132 159.745L39.3331 162.132L37.1554 164.167C37.0238 164.29 37.0178 164.459 37.1404 164.591L37.7533 165.25C37.8758 165.382 38.0452 165.388 38.1768 165.265L44.8999 158.985C45.0314 158.862 45.0374 158.692 44.9148 158.561L41.8779 155.294C40.0121 153.288 38.1234 153.136 36.6765 154.488C35.2295 155.839 35.2474 157.738 37.1132 159.745ZM29.7727 156.667L30.3855 157.326C30.5081 157.458 30.6775 157.464 30.809 157.341L37.5321 151.061C37.6637 150.938 37.6697 150.769 37.5471 150.637L36.9343 149.978C36.8117 149.846 36.6423 149.84 36.5107 149.963L29.7876 156.243C29.6561 156.366 29.6501 156.535 29.7727 156.667ZM40.9006 156.152L43.1477 158.569L40.2831 161.245L38.036 158.828C36.7694 157.466 36.7508 156.389 37.657 155.542C38.5632 154.696 39.6341 154.79 40.9006 156.152Z" fill="white"/>
  <path id="letter" d="M20.1053 133.287L24.3068 141.918C24.3855 142.08 24.5459 142.135 24.7076 142.056L25.3364 141.749C25.4981 141.67 25.5534 141.509 25.4746 141.347L21.2731 132.716C21.1944 132.554 21.034 132.498 20.8723 132.578L20.2435 132.885C20.0818 132.964 20.0265 133.125 20.1053 133.287Z" fill="white"/>
  <path id="letter" d="M17.478 107.698C17.3624 107.859 17.4048 107.994 17.5458 108.113C18.5591 108.98 19.3054 110.073 19.5444 111.534C20.0288 114.495 18.0183 117.318 14.8212 117.844C11.6043 118.372 8.79945 116.34 8.31507 113.38C8.07611 111.919 8.43494 110.644 9.11887 109.498C9.21468 109.34 9.21181 109.199 9.05106 109.083L8.33916 108.572C8.17841 108.457 8.02376 108.502 7.92795 108.66C7.04918 110.102 6.51488 111.791 6.8152 113.626C7.45458 117.534 11.1095 120.055 15.0763 119.403C19.0233 118.754 21.6837 115.196 21.0443 111.288C20.744 109.452 19.6994 108.022 18.4073 106.938C18.2663 106.819 18.1052 106.825 17.9897 106.986L17.478 107.698Z" fill="white"/>
  <path id="letter" d="M10.0367 98.485C10.0073 101.305 12.2466 103.308 15.1265 103.337C18.0063 103.367 20.2874 101.35 20.3178 98.43C20.333 96.97 19.8063 95.6846 18.8559 94.7549C18.6976 94.5932 18.5574 94.6118 18.3957 94.7702L18.0318 95.1465C17.8901 95.305 17.9489 95.4256 18.0674 95.5668C18.6007 96.2123 19.0322 97.0368 19.0195 98.2567C18.9979 100.337 17.624 101.663 15.7618 101.864L15.8381 94.524C15.8433 94.0241 15.5242 93.9408 14.8442 93.9339C12.3444 93.9083 10.066 95.6652 10.0367 98.485ZM11.3566 98.4985C11.3759 96.6386 12.8298 95.3134 14.6705 95.2521L14.6017 101.872C12.7039 101.652 11.3375 100.338 11.3566 98.4985Z" fill="white"/>
  <path id="letter" d="M11.5379 83.8586C11.2764 85.356 11.7629 86.6394 12.6762 87.5712L11.4214 87.4323C11.2407 87.4209 11.1053 87.4986 11.0743 87.676L10.9333 88.4837C10.9023 88.6611 10.9999 88.8 11.1772 88.8311L23.9816 91.0773C24.1589 91.1084 24.2978 91.0109 24.3287 90.8336L24.4836 89.947C24.5145 89.7697 24.417 89.6308 24.2397 89.5997L19.3149 88.7358C20.4734 88.1471 21.3624 87.1253 21.6239 85.628C22.1055 82.8697 20.2235 80.509 17.4066 80.0149C14.5896 79.5207 12.0195 81.1004 11.5379 83.8586ZM20.2637 85.5112C19.9197 87.4814 17.9744 88.6224 15.9454 88.2665C13.9361 87.914 12.5128 86.182 12.8568 84.2118C13.2008 82.2417 15.0313 81.0602 17.1392 81.4299C19.2667 81.8032 20.6077 83.541 20.2637 85.5112Z" fill="white"/>
  <path id="letter" d="M20.3841 69.5682C20.4048 68.537 19.9039 67.7258 18.9035 67.3754C17.62 66.9258 16.2886 67.6461 15.5379 69.799L14.1551 73.7648C14.0958 73.9348 14.1695 74.0877 14.3394 74.1472L23.0221 77.1888C23.192 77.2483 23.3447 77.1747 23.404 77.0047L24.7868 73.0389C25.7746 70.2062 25.0938 68.6962 23.5083 68.1408C22.4324 67.7639 21.1242 68.1745 20.3841 69.5682ZM18.6313 68.7635C19.3675 69.0213 19.7568 69.6663 19.1905 71.2904L18.2686 73.9343L15.7582 73.0549L16.7459 70.2222C17.3122 68.5981 17.9896 68.5386 18.6313 68.7635ZM23.5788 72.6157L22.5911 75.4485L19.4011 74.331L20.323 71.6871C21.133 69.3643 22.1725 69.1775 22.9652 69.4552C23.7391 69.7263 24.3229 70.4818 23.5788 72.6157Z" fill="white"/>
  <path id="letter" d="M23.3579 53.165L22.7139 54.3629C22.6381 54.5038 22.6422 54.6651 22.7099 54.7926L27.1634 63.4035L20.2125 59.6492C20.0541 59.5637 19.8917 59.6123 19.8064 59.7709L19.3803 60.5636C19.295 60.7221 19.3438 60.8848 19.5022 60.9704L27.5969 65.3424C27.7553 65.428 27.9177 65.3793 28.0029 65.2207L28.6943 63.9348C28.7701 63.7939 28.766 63.6326 28.6983 63.5051L24.3382 55.0584L31.1484 58.7366C31.3068 58.8221 31.4692 58.7734 31.5544 58.6149L31.9806 57.8222C32.0658 57.6637 32.0171 57.5009 31.8587 57.4154L23.7639 53.0434C23.6055 52.9578 23.4431 53.0065 23.3579 53.165Z" fill="white"/>
  <path id="letter" d="M36.1381 50.2025C34.9016 51.8251 32.7425 51.9857 31.0274 50.6727C29.3123 49.3596 28.8988 47.2295 30.1353 45.6069C31.0687 44.3821 32.0563 44.3069 32.8207 44.1617C33.0289 44.1196 33.1137 44.0082 33.0874 43.8118L33.0252 43.1344C33.0027 42.9661 32.8877 42.8529 32.7039 42.8632C31.3046 42.9506 29.9888 43.5553 29.0554 44.7802C27.3461 47.0232 27.8678 50.0673 30.1546 51.818C32.4414 53.5687 35.5087 53.2722 37.218 51.0292C38.1756 49.7726 38.4237 48.3252 38.1396 46.9491C38.1012 46.7686 37.962 46.6872 37.794 46.7097L37.1257 46.8278C36.9297 46.854 36.8289 46.9532 36.859 47.1777C36.9642 47.9636 37.0958 48.9458 36.1381 50.2025Z" fill="white"/>
  <path id="letter" d="M41.1714 36.7226L38.7682 38.9253L36.7597 36.7238C36.6384 36.5909 36.469 36.5833 36.3363 36.7049L35.6729 37.313C35.5402 37.4347 35.5326 37.6044 35.6539 37.7374L41.8546 44.5338C41.9759 44.6668 42.1453 44.6743 42.2779 44.5527L45.5658 41.5392C47.5857 39.6878 47.7551 37.7963 46.4206 36.3336C45.0861 34.8708 43.1913 34.8712 41.1714 36.7226ZM44.3128 29.3941L43.6493 30.0022C43.5166 30.1238 43.509 30.2935 43.6303 30.4265L49.831 37.2229C49.9524 37.3559 50.1217 37.3635 50.2544 37.2418L50.9179 36.6337C51.0506 36.5121 51.0581 36.3424 50.9368 36.2094L44.7361 29.413C44.6148 29.28 44.4455 29.2724 44.3128 29.3941ZM44.7191 40.5518L42.2864 42.7815L39.6444 39.8857L42.0771 37.6559C43.4483 36.3991 44.5233 36.3905 45.3591 37.3065C46.1948 38.2226 46.0903 39.295 44.7191 40.5518Z" fill="white"/>
  <path id="letter" d="M67.7357 19.9046L59.0721 24.0399C58.9096 24.1174 58.8528 24.2775 58.9301 24.4401L59.2305 25.0724C59.3077 25.2349 59.4675 25.2916 59.63 25.2141L68.2936 21.0788C68.4561 21.0012 68.5129 20.8411 68.4356 20.6786L68.1352 20.0463C68.058 19.8837 67.8982 19.827 67.7357 19.9046Z" fill="white"/>
  <path id="letter" d="M94.6847 5.95352L93.3773 6.13587C93.2188 6.15797 93.0884 6.23674 93.0483 6.3837L89.6953 19.0281L83.0055 7.78447C82.9268 7.65409 82.7799 7.614 82.6214 7.6361L81.3537 7.81293C81.1754 7.83779 81.0731 7.97323 81.0978 8.15152L82.9406 21.4242C82.9654 21.6025 83.1007 21.7048 83.279 21.6799L84.2298 21.5473C84.4081 21.5224 84.5104 21.387 84.4857 21.2087L83.0032 10.5311L89.0724 20.6497C89.1538 20.7999 89.2809 20.8428 89.4394 20.8207L90.41 20.6853C90.5684 20.6632 90.679 20.5872 90.7164 20.4204L93.8245 8.92079L95.3208 19.6974C95.3455 19.8757 95.4809 19.978 95.6591 19.9531L96.6099 19.8205C96.7882 19.7956 96.8906 19.6602 96.8658 19.4819L95.023 6.20922C94.9983 6.03093 94.8629 5.92865 94.6847 5.95352Z" fill="white"/>
  <path id="letter" d="M104.852 20.5416C107.648 20.6953 109.925 18.5772 110.081 15.6813C110.236 12.7855 108.2 10.4302 105.404 10.2764C102.608 10.1227 100.331 12.2408 100.176 15.1366C100.02 18.0325 102.056 20.3878 104.852 20.5416ZM104.925 19.1835C102.948 19.0748 101.495 17.4125 101.613 15.2157C101.731 13.0189 103.354 11.5257 105.331 11.6344C107.308 11.7432 108.761 13.4054 108.643 15.6023C108.525 17.7991 106.902 19.2923 104.925 19.1835Z" fill="white"/>
  <path id="letter" d="M120.611 12.5394C119.167 12.2125 117.891 12.6001 116.925 13.4273L117.435 11.1641C117.743 9.79836 118.402 9.33233 119.767 9.64156L122.05 10.1584C123.591 10.5074 124.647 10.4596 125.226 9.07323L123.841 8.75958C123.539 8.91676 123.226 9.03051 122.329 8.8273L119.813 8.25742C117.511 7.73614 116.411 8.61484 115.883 10.9561L113.64 20.9064C113.6 21.082 113.691 21.2255 113.867 21.2653L114.666 21.4464C114.842 21.4862 114.966 21.3912 115.025 21.22L115.367 20.0671C115.899 21.2539 116.876 22.193 118.359 22.5287C121.09 23.1472 123.537 21.3843 124.166 18.5943C124.795 15.8043 123.342 13.1579 120.611 12.5394ZM118.541 21.1755C116.59 20.7338 115.545 18.7334 115.998 16.7238C116.446 14.7337 118.244 13.3979 120.195 13.8396C122.145 14.2814 123.237 16.1691 122.766 18.2567C122.291 20.3638 120.491 21.6173 118.541 21.1755Z" fill="white"/>
  <path id="letter" d="M138.75 19.024L137.991 18.7116C137.825 18.643 137.687 18.7159 137.6 18.8748L137.048 20.01C136.748 18.7398 135.922 17.6425 134.517 17.0633C131.928 15.9964 129.221 17.3251 128.136 19.9711C127.05 22.6171 128.042 25.4701 130.63 26.537C132.036 27.1162 133.374 26.9106 134.49 26.2457L134.108 27.3864C134.058 27.5605 134.105 27.7097 134.272 27.7782L135.03 28.0907C135.196 28.1593 135.353 28.094 135.421 27.9275L138.913 19.4159C138.981 19.2494 138.916 19.0926 138.75 19.024ZM131.258 25.3245C129.408 24.5624 128.655 22.4997 129.475 20.5013C130.287 18.5215 132.263 17.6052 134.112 18.3673C135.961 19.1294 136.666 21.2585 135.891 23.1458C135.109 25.0517 133.107 26.0866 131.258 25.3245Z" fill="white"/>
  <path id="letter" d="M148.625 22.9217C149.969 23.753 151.381 23.4043 152.193 22.354C152.315 22.1942 152.282 22.0565 152.112 21.9512L151.738 21.7197C151.585 21.625 151.447 21.6575 151.319 21.7897C150.784 22.3527 149.97 22.5308 149.171 22.0362C148.371 21.5415 148.165 20.732 148.428 20.0007C148.488 19.8264 148.455 19.6886 148.302 19.5939L147.928 19.3624C147.758 19.2571 147.621 19.2897 147.533 19.4705C146.96 20.6681 147.282 22.0903 148.625 22.9217ZM151.348 26.3943L150.192 25.6787C150.056 25.5945 149.895 25.5889 149.764 25.649L140.925 29.5876L145.069 22.8611C145.163 22.7079 145.124 22.5426 144.971 22.4479L144.205 21.9743C144.052 21.8796 143.887 21.9186 143.793 22.0719L138.968 29.9052C138.874 30.0584 138.913 30.2238 139.066 30.3185L140.307 31.0867C140.443 31.1709 140.604 31.1765 140.735 31.1164L149.405 27.2614L145.346 33.8516C145.251 34.0049 145.291 34.1702 145.444 34.2649L146.209 34.7385C146.362 34.8332 146.527 34.7942 146.621 34.6409L151.446 26.8076C151.541 26.6543 151.502 26.489 151.348 26.3943Z" fill="white"/>
  <path id="letter" d="M162.931 36.0081L156.977 30.8157C156.841 30.6974 156.672 30.7091 156.554 30.845L152.988 34.9531C151.769 36.3577 150.657 36.662 149.587 35.7286C149.481 35.6366 149.37 35.6727 149.322 35.7896L148.902 36.6703C148.851 36.759 148.859 36.872 148.949 36.9509C150.457 38.2654 152.257 38.0836 154.053 36.0145L157.042 32.571L161.187 36.186L155.799 42.3933C155.681 42.5293 155.692 42.6988 155.828 42.8171L156.506 43.4086C156.642 43.5269 156.811 43.5152 156.929 43.3793L162.96 36.4318C163.078 36.2959 163.066 36.1264 162.931 36.0081Z" fill="white"/>
  <path id="letter" d="M175.273 57.9218L170.075 49.851C169.977 49.6997 169.812 49.664 169.661 49.7618L169.073 50.1421C168.922 50.2398 168.886 50.4059 168.984 50.5573L174.182 58.628C174.279 58.7793 174.445 58.815 174.596 58.7172L175.184 58.337C175.335 58.2392 175.371 58.0731 175.273 57.9218Z" fill="white"/>
  <path id="letter" d="M191.416 78.4673L188.858 69.7759C188.807 69.6032 188.658 69.5221 188.486 69.5732L175.636 73.3724C175.463 73.4235 175.382 73.5726 175.433 73.7453L175.704 74.6662C175.755 74.8389 175.904 74.92 176.076 74.869L187.833 71.3929L189.679 77.6668L177.923 81.1429C177.75 81.1939 177.669 81.3431 177.72 81.5158L177.991 82.4367C178.041 82.6094 178.19 82.6905 178.363 82.6394L191.213 78.8402C191.386 78.7891 191.467 78.64 191.416 78.4673Z" fill="white"/>
  <path id="letter" d="M179.115 91.7371C179.433 94.5191 181.903 96.4097 184.785 96.079C187.666 95.7484 189.646 93.3469 189.328 90.565C189.01 87.7831 186.54 85.8925 183.659 86.2231C180.778 86.5538 178.797 88.9552 179.115 91.7371ZM180.466 91.5821C180.242 89.6149 181.636 87.9047 183.822 87.6538C186.008 87.403 187.752 88.7529 187.977 90.7201C188.202 92.6873 186.807 94.3975 184.621 94.6483C182.435 94.8992 180.691 93.5493 180.466 91.5821Z" fill="white"/>
  <path id="letter" d="M180.539 111.745L180.597 110.826L188.8 111.351C188.98 111.363 189.107 111.251 189.119 111.071L189.621 103.187C189.633 103.008 189.521 102.88 189.341 102.869L183.912 102.521C182.275 102.416 181.369 101.857 181.238 100.767L181.265 100.348C181.276 100.168 181.22 100.104 181.041 100.093L178.925 99.9574C178.745 99.9459 178.618 100.058 178.606 100.238L178.549 101.136C178.538 101.315 178.65 101.443 178.83 101.454L179.907 101.523L179.338 110.465L178.26 110.396C178.08 110.385 177.953 110.497 177.941 110.676L177.884 111.575C177.873 111.754 177.985 111.882 178.164 111.893L180.22 112.025C180.4 112.036 180.527 111.924 180.539 111.745ZM188.267 104.303L187.918 109.792L180.693 109.329L181.08 103.242C181.715 103.663 182.579 103.939 183.717 104.012L188.267 104.303Z" fill="white"/>
  <path id="letter" d="M176.987 126.617L177.215 125.726L185.176 127.775C185.35 127.82 185.496 127.734 185.541 127.56L187.502 119.907C187.546 119.732 187.46 119.586 187.286 119.541L182.018 118.185C180.429 117.776 179.643 117.057 179.718 115.961L179.822 115.555C179.867 115.38 179.823 115.307 179.649 115.262L177.596 114.734C177.422 114.689 177.276 114.775 177.231 114.949L177.008 115.821C176.963 115.996 177.049 116.142 177.224 116.187L178.269 116.456L176.045 125.136L174.999 124.866C174.825 124.821 174.679 124.908 174.634 125.082L174.411 125.954C174.366 126.128 174.453 126.274 174.627 126.319L176.622 126.833C176.796 126.878 176.942 126.791 176.987 126.617ZM185.964 120.75L184.599 126.078L177.588 124.273L179.102 118.364C179.647 118.896 180.444 119.329 181.548 119.613L185.964 120.75Z" fill="white"/>
  <path id="letter" d="M181.533 138.113C182.692 135.542 181.447 132.805 178.823 131.617C176.199 130.429 173.302 131.357 172.103 134.019C171.503 135.35 171.469 136.74 171.965 137.974C172.045 138.186 172.181 138.226 172.393 138.146L172.877 137.948C173.07 137.86 173.065 137.726 173.013 137.549C172.784 136.742 172.72 135.813 173.221 134.701C174.076 132.805 175.865 132.144 177.65 132.711L174.634 139.402C174.429 139.858 174.688 140.063 175.307 140.344C177.585 141.375 180.375 140.684 181.533 138.113ZM180.331 137.569C179.567 139.264 177.704 139.892 175.995 139.206L178.715 133.171C180.364 134.137 181.087 135.891 180.331 137.569Z" fill="white"/>
  <path id="letter" d="M174.289 150.902C175.13 149.636 175.201 148.264 174.739 147.043L175.832 147.675C175.993 147.759 176.148 147.742 176.247 147.592L176.701 146.909C176.8 146.759 176.767 146.592 176.617 146.493L165.803 139.278C165.653 139.178 165.487 139.212 165.387 139.362L164.889 140.111C164.79 140.261 164.823 140.428 164.973 140.528L169.132 143.303C167.836 143.375 166.612 143.953 165.771 145.219C164.222 147.552 164.996 150.472 167.375 152.059C169.754 153.647 172.741 153.235 174.289 150.902ZM166.969 145.874C168.075 144.208 170.313 143.946 172.027 145.089C173.724 146.222 174.331 148.381 173.224 150.047C172.118 151.713 169.968 152.058 168.188 150.871C166.391 149.672 165.862 147.54 166.969 145.874Z" fill="white"/>
  <path id="letter" d="M150.804 163.116L157.771 163.601L157.787 168.968C157.788 169.251 157.958 169.306 158.141 169.121L158.97 168.281C159.068 168.182 159.124 168.068 159.123 167.898L159.101 161.513L162.198 164.582C162.326 164.709 162.495 164.708 162.622 164.58L163.254 163.939C163.38 163.811 163.379 163.641 163.252 163.514L160.155 160.445L166.525 160.395C166.695 160.394 166.808 160.337 166.906 160.237L167.735 159.397C167.917 159.212 167.86 159.043 167.577 159.044L162.224 159.088L161.662 152.111C161.633 151.857 161.477 151.787 161.294 151.972L160.465 152.812C160.367 152.911 160.311 153.025 160.326 153.181L160.811 159.096L158.805 159.107L156.717 157.038C156.59 156.911 156.42 156.912 156.294 157.04L155.662 157.681C155.535 157.809 155.536 157.979 155.664 158.106L157.752 160.175L157.763 162.186L151.856 161.766C151.701 161.752 151.588 161.81 151.49 161.909L150.661 162.749C150.478 162.934 150.55 163.09 150.804 163.116Z" fill="white"/>
  <path id="letter" d="M141.517 169.251L148.271 171.028L147.286 176.302C147.235 176.58 147.391 176.667 147.605 176.519L148.576 175.849C148.691 175.769 148.767 175.668 148.798 175.501L149.968 169.224L152.438 172.817C152.54 172.965 152.707 172.996 152.855 172.894L153.595 172.382C153.744 172.28 153.774 172.113 153.672 171.964L148.461 164.383C148.359 164.235 148.192 164.204 148.044 164.306L147.303 164.818C147.155 164.92 147.124 165.087 147.226 165.235L148.892 167.658L148.528 169.635L142.802 168.12C142.652 168.078 142.531 168.114 142.416 168.193L141.445 168.864C141.231 169.012 141.272 169.177 141.517 169.251Z" fill="white"/>
  <path id="letter" d="M133.581 183.76L134.322 183.409C134.485 183.333 134.524 183.181 134.466 183.01L134.002 181.835C135.14 182.47 136.505 182.6 137.88 181.95C140.411 180.755 141.258 177.855 140.042 175.267C138.825 172.679 136.055 171.488 133.523 172.684C132.148 173.333 131.397 174.462 131.135 175.736L130.552 174.684C130.457 174.53 130.316 174.464 130.153 174.541L129.411 174.891C129.249 174.968 129.191 175.128 129.268 175.29L133.182 183.616C133.259 183.779 133.418 183.836 133.581 183.76ZM133.993 173.966C135.801 173.111 137.829 173.945 138.748 175.9C139.658 177.837 139.001 179.917 137.192 180.771C135.384 181.625 133.341 180.71 132.473 178.864C131.596 177 132.185 174.82 133.993 173.966Z" fill="white"/>
  <path id="letter" d="M108.244 186.439L117.723 184.917C117.901 184.889 118 184.751 117.972 184.573L117.861 183.882C117.833 183.704 117.695 183.605 117.518 183.633L108.039 185.156C107.861 185.184 107.762 185.322 107.79 185.499L107.901 186.191C107.929 186.368 108.067 186.468 108.244 186.439Z" fill="white"/>
</svg>
